<?xml version="1.0" standalone="no"?>
<!DOCTYPE svg PUBLIC "-//W3C//DTD SVG 20010904//EN"
 "http://www.w3.org/TR/2001/REC-SVG-20010904/DTD/svg10.dtd">
<svg version="1.0" xmlns="http://www.w3.org/2000/svg"
 width="16.000000pt" height="16.000000pt" viewBox="0 0 16.000000 16.000000"
 preserveAspectRatio="xMidYMid meet">
<metadata>
Created by potrace 1.11, written by Peter Selinger 2001-2013
</metadata>
<g transform="translate(0.000000,16.000000) scale(0.013008,-0.013008)"
fill="#000000" stroke="none">
<path d="M467 951 c-83 -27 -135 -67 -178 -136 -21 -32 -37 -61 -35 -63 2 -1
23 7 47 20 33 17 61 23 109 23 36 0 75 6 87 13 45 25 46 20 41 -124 -5 -131
-5 -137 17 -162 19 -22 32 -27 72 -27 26 0 60 3 76 8 l27 7 0 -64 0 -64 -62
26 c-90 36 -186 41 -277 13 -38 -12 -73 -26 -76 -31 -8 -13 1 -13 24 0 10 5
45 13 79 19 98 16 171 0 297 -64 96 -48 118 -55 169 -55 101 0 167 56 150 129
-8 31 -32 61 -59 71 -16 6 -19 15 -17 46 4 49 -19 73 -77 81 l-41 6 25 28 c31
37 38 63 31 104 -15 76 -101 121 -180 94 -102 -35 -114 -174 -20 -225 42 -23
43 -45 3 -78 -31 -26 -81 -34 -108 -17 -19 12 -30 81 -31 194 l0 99 29 -3 c20
-3 38 5 64 28 40 35 91 49 134 38 54 -13 0 25 -73 51 -94 34 -174 39 -247 15z
m346 -141 c47 -37 44 -135 -4 -160 -62 -34 -129 10 -129 84 0 37 5 48 31 70
37 31 67 33 102 6z m83 -245 c24 -37 10 -63 -44 -79 -26 -7 -50 -12 -54 -9
-13 7 -9 88 4 101 22 22 76 15 94 -13z m42 -101 c12 -4 29 -19 37 -35 29 -55
-17 -109 -92 -109 -65 0 -93 17 -93 56 0 48 9 65 44 80 34 14 68 17 104 8z"/>
</g>
</svg>
